<svg
              xmlns="http://www.w3.org/2000/svg"
              width="25"
              height="25"
              viewBox="0 0 25 25"
              fill="none"
            >
              <g clip-path="url(#clip0_21031_9606)">
                <path
                  fill-rule="evenodd"
                  clip-rule="evenodd"
                  d="M12.0149 0.114746C18.6428 0.114746 24.0149 5.48686 24.0149 12.1147C24.0149 18.7426 18.6428 24.1147 12.0149 24.1147C5.38701 24.1147 0.0148926 18.7426 0.0148926 12.1147C0.0148926 5.48686 5.38701 0.114746 12.0149 0.114746Z"
                  fill="#5C5C5C"
                />
                <path
                  d="M6.60999 12.1147L6.61864 15.2878L9.3148 16.8744V18.7321L5.04076 16.2253V11.1869L6.60999 12.1147ZM6.60999 8.94167V10.7907L5.03979 9.86186V8.01282L6.60999 7.08398L8.18787 8.01282L6.60999 8.94167ZM10.4408 8.01282L12.0109 7.08398L13.5888 8.01282L12.0109 8.94167L10.4408 8.01282Z"
                  fill="white"
                  fill-opacity="0.4"
                />
                <path
                  d="M7.74463 14.6301V12.7724L9.31482 13.7013V15.5503L7.74463 14.6301ZM10.4408 17.5397L12.011 18.4686L13.5889 17.5397V19.3888L12.011 20.3176L10.4408 19.3888V17.5397ZM15.8408 8.01282L17.411 7.08398L18.9889 8.01282V9.86186L17.411 10.7907V8.94167L15.8408 8.01282ZM17.411 15.2878L17.4196 12.1147L18.9898 11.1859V16.2244L14.7158 18.7311V16.8734L17.411 15.2878Z"
                  fill="white"
                  fill-opacity="0.4"
                />
                <path
                  d="M16.285 14.6301L14.7148 15.5503V13.7013L16.285 12.7724V14.6301Z"
                  fill="white"
                  fill-opacity="0.4"
                />
                <path
                  d="M16.285 9.59936L16.2937 11.4571L13.5898 13.0436V16.2244L12.0196 17.1446L10.4494 16.2244V13.0436L7.74559 11.4571V9.59936L9.32251 8.67052L12.01 10.2647L14.7139 8.67052L16.2917 9.59936H16.285ZM7.74463 6.42725L12.011 3.91186L16.285 6.42725L14.7148 7.35609L12.011 5.76186L9.31482 7.35609L7.74463 6.42725Z"
                  fill="white"
                  fill-opacity="0.4"
                />
              </g>
              <defs>
                <clipPath id="clip0_21031_9606">
                  <rect
                    width="24"
                    height="24"
                    fill="white"
                    transform="translate(0.0148926 0.114746)"
                  />
                </clipPath>
              </defs>
            </svg>