   <svg
              xmlns="http://www.w3.org/2000/svg"
              width="89"
              height="33"
              viewBox="0 0 89 33"
              fill="none"
            >
              <g>
                <path
                  d="M28.9781 18.3609C28.7928 18.4344 28.5375 18.5814 28.3172 18.6198C25.3412 17.2585 21.3757 16.8175 18.0675 16.8175H17.9207C14.6895 16.8175 10.647 17.297 7.67104 18.6198C7.45073 18.5814 7.19195 18.4344 7.01011 18.3609C6.42262 19.0223 5.54138 21.668 5.24764 23.2499V23.2884C9.06983 22.5884 9.65732 24.8317 11.2729 24.8702C12.3395 24.9087 13.9901 21.9305 17.9591 21.892C21.8897 21.927 23.5403 24.9017 24.6418 24.8667C26.2575 24.8282 26.8449 22.6234 30.6671 23.2849V23.2464C30.3734 21.6295 29.4921 18.9803 28.9047 18.3574H28.9781V18.3609Z"
                  fill="#5C5C5C"
                />
                <path
                  d="M30.6672 22.8442C26.9918 22.1093 25.8553 24.461 24.6419 24.4261C23.4669 24.4261 21.9982 21.5213 18.0676 21.4479H17.9207C13.9901 21.5213 12.5214 24.3876 11.3464 24.4261C10.1714 24.4261 8.99642 22.0743 5.3211 22.8442C5.24767 23.2852 4.62171 25.8959 7.23045 28.3946C10.7554 31.7403 17.1863 31.8488 17.9592 31.8488C18.732 31.8488 25.1594 31.7368 28.6879 28.3946C31.2966 25.9309 30.6707 23.2852 30.5972 22.8442H30.6672Z"
                  fill="white"
                />
                <path
                  d="M29.4921 16.2648C26.1875 13.8395 21.7394 13.4721 18.1759 13.3251V13.2866C14.5391 13.4336 9.90909 13.766 6.49255 16.2263C6.45408 16.4853 6.49255 17.8816 6.49255 17.8816C6.49255 17.8816 7.37379 18.2876 7.74097 18.4696C11.8219 16.8527 16.966 16.7792 17.9941 16.7792V16.8177C17.9941 16.8177 23.7991 16.7442 28.2787 18.5081C28.6109 18.3611 29.4921 17.9201 29.4921 17.9201C29.4921 17.9201 29.5306 16.5203 29.4921 16.2648Z"
                  fill="#5C5C5C"
                />
                <path
                  d="M20.2706 13.2866H15.826L16.3785 6.52179L18.0326 6.08084L19.7566 6.52179L20.2706 13.2866Z"
                  fill="#5C5C5C"
                />
                <path
                  d="M29.3103 16.0442L24.4984 14.1334L20.3091 13.325L19.8685 7.73603C19.8685 7.73603 23.799 8.14199 24.9006 9.90581C24.6069 12.2226 26.3693 14.7598 29.3452 15.1273C29.3452 15.6067 29.3068 16.0827 29.3068 16.0827V16.0442H29.3103Z"
                  fill="#5C5C5C"
                />
                <path
                  d="M6.71639 16.0442L11.5282 14.1334L15.7176 13.325L16.1582 7.73603C16.1582 7.73603 12.2276 8.14199 11.1261 9.90581C11.4198 12.2226 9.65734 14.7598 6.68142 15.1273C6.68142 15.6067 6.71988 16.0827 6.71988 16.0827V16.0442H6.71639Z"
                  fill="#5C5C5C"
                />
                <path
                  d="M33.4962 11.4492C32.5415 12.7371 32.0275 13.178 31.2931 13.766C31.1077 13.913 30.4853 14.3539 29.9328 14.6129C29.8593 14.6514 29.7474 14.6864 29.7125 14.7249C29.674 14.7249 29.6006 14.7634 29.5656 14.7634C29.2334 14.8369 29.0865 14.7634 28.464 14.6514C28.4256 14.6514 28.2437 14.6129 28.2053 14.6129C27.8381 14.5394 27.0652 14.2804 26.4043 13.619C25.3377 12.5901 24.8237 11.4142 25.1909 9.61191C26.6596 9.6504 29.1215 8.06857 30.2964 6.45173C31.6603 4.53743 31.4015 2.29416 31.0728 0.897807C30.9609 0.456853 31.4749 0.124387 31.8421 0.418357C36.0665 3.72552 35.4055 8.94698 33.5312 11.4492H33.4962Z"
                  fill="#5C5C5C"
                />
                <path
                  d="M6.86319 18.0672C5.64974 20.419 4.54819 23.2887 5.39446 25.9344C5.72667 26.9633 6.34913 27.8837 7.12197 28.6186C7.82136 29.2451 8.59069 29.7595 9.43696 30.2005C11.3848 31.2678 13.5529 31.7823 15.756 32.0028C16.5288 32.0763 17.2982 32.1148 18.0325 32.1148C18.7669 32.1148 18.3647 31.6353 18.0325 31.6353C15.4622 31.6353 12.7801 31.2678 10.4651 30.1655C8.84947 29.392 7.1954 28.3631 6.2757 26.7463C5.02728 24.5415 5.72318 21.8573 6.64288 19.6525C6.82822 19.2116 7.04853 18.7706 7.26884 18.3297C7.48915 17.8887 6.97509 17.7767 6.82822 18.0707H6.86319V18.0672Z"
                  fill="black"
                />
                <path
                  d="M7.5976 18.8756C7.81791 18.9491 8.03822 18.8021 8.11165 18.5816C8.18509 18.3611 8.03822 18.1757 7.81791 18.0672C7.79238 18.0672 7.80497 18.0672 7.85638 18.0672C7.81791 18.0672 7.41576 17.8432 7.30385 17.8082C7.08355 17.6962 6.86324 17.5877 6.64293 17.4757C6.45759 17.3637 6.20231 17.4022 6.0904 17.6227C5.9785 17.8082 6.05544 18.1512 6.24077 18.2246C6.24077 18.2246 7.15698 18.6901 7.5976 18.8756Z"
                  fill="black"
                />
                <path
                  d="M7.85638 18.8754C9.14327 18.3609 10.4651 18.0285 11.8254 17.773C13.4795 17.479 15.1301 17.2935 16.8226 17.2585C17.2283 17.2585 17.6689 17.22 18.071 17.22C18.4732 17.22 18.4767 17.0346 18.4767 16.8141C18.4767 16.5936 18.2913 16.4081 18.071 16.4081C16.2701 16.4466 14.5076 16.5551 12.7451 16.8141C11.3114 17.0346 9.88113 17.3285 8.5208 17.808C8.22706 17.92 7.96828 17.9935 7.67454 18.1404C7.45423 18.2139 7.30736 18.3994 7.38079 18.6549C7.54515 19.0049 7.85638 18.8754 7.85638 18.8754Z"
                  fill="black"
                />
                <path
                  d="M6.86325 17.8816C6.86325 17.3287 6.82478 16.8143 6.86325 16.2648C6.86325 16.0443 6.67791 15.8589 6.4576 15.8589C6.23729 15.8589 6.05195 16.0443 6.05195 16.2648V17.8816C6.05195 18.1021 6.23729 18.2876 6.4576 18.2876C6.67791 18.2876 6.86325 18.1021 6.86325 17.8816Z"
                  fill="black"
                />
                <path
                  d="M6.64292 16.7021C7.01011 16.4816 7.37729 16.2612 7.78294 16.0407C8.00325 15.9287 8.22356 15.8202 8.44387 15.7082C8.55577 15.6697 8.66418 15.5962 8.77608 15.5612C8.84951 15.5227 8.88798 15.5227 8.96142 15.4877C8.99988 15.4877 9.03485 15.4493 9.03485 15.4493C9.05187 15.4493 9.05187 15.4493 9.03485 15.4493C9.06038 15.4493 9.08486 15.4363 9.10829 15.4108C10.2833 14.8963 11.5317 14.5288 12.8186 14.2699C13.6264 14.0844 14.3992 13.9759 15.207 13.9024C16.1267 13.7904 17.0814 13.7554 18.0361 13.7554C18.9907 13.7554 18.4417 13.5699 18.4417 13.3495C18.4417 13.129 18.2564 12.9435 18.0361 12.9435C15.0252 12.9435 11.9758 13.3845 9.18173 14.5253C8.15362 14.9313 7.19894 15.4073 6.27924 15.9952C6.0939 16.1072 6.02046 16.3627 6.13237 16.5481C6.24427 16.7336 6.49955 16.8071 6.68489 16.6951H6.64292V16.7021Z"
                  fill="black"
                />
                <path
                  d="M2.96755 11.4492C3.92222 12.7371 4.43628 13.178 5.17064 13.766C5.35598 13.913 5.97844 14.3539 6.53096 14.6129C6.6044 14.6514 6.7163 14.6864 6.75127 14.7249C6.78974 14.7249 6.86318 14.7634 6.89815 14.7634C7.23036 14.8369 7.37723 14.7634 7.99969 14.6514C8.03816 14.6514 8.22 14.6129 8.25847 14.6129C8.62565 14.5394 9.39848 14.2804 10.0594 13.619C11.126 12.5901 11.64 11.4142 11.2729 9.61191C9.80413 9.6504 7.34226 8.06857 6.16728 6.45173C4.80696 4.53743 5.06224 2.29416 5.39445 0.897807C5.50285 0.456853 4.9888 0.124387 4.62162 0.418357C0.397274 3.72902 1.0582 8.94698 2.93258 11.4492H2.96755Z"
                  fill="#5C5C5C"
                />
                <path
                  d="M3.66702 0.712365C3.07953 1.3388 2.52701 2.00023 2.08639 2.73516C1.71921 3.36159 1.38699 4.02302 1.16669 4.71945C0.907909 5.45438 0.834473 6.26279 0.834473 7.03621C0.834473 10.0879 2.63541 12.8806 5.09728 14.6094C5.79668 15.0889 6.63945 15.4178 7.48571 15.3444C7.9648 15.3059 8.36695 15.1239 8.7726 14.9384C9.10481 14.7914 9.39856 14.6059 9.72727 14.424C10.3148 14.018 10.8288 13.5035 11.161 12.8421C11.4932 12.2157 11.6401 11.5193 11.6401 10.8193C11.6401 10.1194 11.6017 10.1579 11.5667 9.86392C11.5282 9.71694 11.4198 9.60495 11.2729 9.56995C10.8253 9.43347 10.3812 9.32498 9.96507 9.19199C9.54893 9.059 9.85317 9.15 9.79721 9.1255C9.65034 9.05901 9.53844 9.00651 9.47549 8.97851C9.29015 8.90502 9.10831 8.79303 8.96144 8.71954C8.7761 8.60755 8.55579 8.49906 8.37395 8.38707C8.26204 8.31358 8.18861 8.27509 8.0802 8.20159C8.04173 8.1631 7.82142 8.01261 7.82142 8.01261C7.83844 8.02964 7.83844 8.02964 7.82142 8.01261C7.38081 7.68015 7.01362 7.31269 6.68141 6.87173C6.64294 6.83323 6.55552 6.71775 6.4576 6.57426C6.38417 6.46227 6.27226 6.31529 6.19883 6.2068C6.12539 6.09481 6.05196 5.94783 5.97852 5.83934C5.94005 5.76584 5.85613 5.63986 5.78968 5.46838C5.67778 5.17441 5.56937 4.84194 5.49594 4.54797C5.43299 4.2295 5.38054 3.73605 5.38054 3.55057C5.34207 2.77715 5.419 2.00723 5.56588 1.3073C5.6498 0.897846 5.61483 0.456892 5.17422 0.236415C4.7336 0.0159373 4.56924 0.138425 4.28598 0.264412C4.00273 0.390399 3.89782 0.484889 3.73696 0.642373C3.5761 0.799856 3.58309 0.796357 3.50616 0.880348C3.17395 1.25481 3.70898 1.76926 4.06568 1.41929C4.42237 1.06933 4.41188 1.09383 4.58323 1.00983C4.63218 0.984287 4.69408 0.95979 4.76857 0.936342C4.69513 0.936342 4.76857 0.932843 4.76857 0.971339C4.76857 1.08333 4.76857 0.897846 4.76857 1.00983C4.7301 1.19532 4.69513 1.41579 4.65666 1.59777C4.54476 2.37119 4.50979 3.17961 4.58323 3.94953C4.7301 5.2724 5.24416 6.48677 6.12539 7.51566C6.78632 8.28908 7.63259 8.95051 8.51382 9.42647C8.84604 9.61195 9.21322 9.75893 9.54193 9.90592C9.98255 10.0914 10.4966 10.1649 10.9372 10.3119L10.6435 10.0179C10.7554 10.7528 10.7169 11.4528 10.4581 12.1142C10.3183 12.5271 10.0665 12.9436 9.82869 13.1851C9.30414 13.6855 8.94046 13.8465 8.61524 14.0355C8.28302 14.221 7.91584 14.368 7.54866 14.4415C7.43676 14.4799 7.21645 14.4799 7.03461 14.4799C6.85276 14.4799 6.70239 14.4414 6.48208 14.368C6.1149 14.256 5.78269 14.074 5.45397 13.815C5.16023 13.6295 4.93992 13.4091 4.64617 13.1536C4.3874 12.8946 4.13212 12.6741 3.87334 12.3802C3.39426 11.8657 2.99211 11.3128 2.65989 10.6898C1.9605 9.44046 1.59332 8.00561 1.66675 6.53577C1.70522 5.83584 1.81363 5.2129 2.0724 4.55147C2.1843 4.2575 2.29271 3.99853 2.43958 3.70456C2.58646 3.44558 2.73333 3.15161 2.8802 2.89614C3.02707 2.67566 3.17395 2.45519 3.35929 2.23471C3.39775 2.19621 3.50966 2.04923 3.54463 2.01423C3.61806 1.94074 3.6915 1.82875 3.76494 1.75526C3.91181 1.56978 4.09715 1.3878 4.27899 1.20231C4.66016 0.824354 4.28598 0.456892 3.9188 0.824354L3.66702 0.712365Z"
                  fill="black"
                />
                <path
                  d="M33.0311 11.4493C34.9055 8.94706 35.5664 3.7291 31.3421 0.418437C30.9749 0.124468 30.4608 0.456933 30.5692 0.897888C30.9014 2.29424 31.1567 4.53751 29.7964 6.45182C28.6214 8.06865 26.1595 9.65049 24.6908 9.61199C24.3236 11.4143 24.8377 12.5902 25.9043 13.6191C26.5652 14.2805 27.338 14.5395 27.7052 14.613C27.7437 14.613 27.9255 14.6515 27.964 14.6515C28.5864 14.7635 28.7333 14.8369 29.0655 14.7635C29.1005 14.7635 29.1739 14.725 29.2124 14.725C29.2474 14.6865 29.3593 14.6515 29.4327 14.613C29.9852 14.354 30.6077 13.913 30.793 13.7661C31.5274 13.1781 32.0415 12.7372 32.9961 11.4493H33.0311Z"
                  fill="#5C5C5C"
                />
                <path
                  d="M34.7974 4.72052L34.7971 4.71947C34.6817 4.35446 34.5351 3.9989 34.369 3.65313C34.2187 3.33922 34.0522 3.03335 33.8773 2.73518C33.5983 2.27008 33.2748 1.83402 32.9255 1.41826C32.7849 1.25028 32.6398 1.0858 32.4922 0.923764C32.4821 0.909066 32.4705 0.894717 32.4576 0.880369C32.1219 0.505908 32.3037 0.715886 32.2268 0.642393C32.0659 0.48491 31.8806 0.355423 31.6777 0.264432C31.4749 0.173442 31.0833 0.0894505 30.7895 0.236435C30.3489 0.456913 30.3139 0.897867 30.3979 1.30732C30.5447 2.00725 30.6217 2.77717 30.5832 3.55059C30.5832 3.73607 30.5307 4.22952 30.4678 4.54799C30.3944 4.84196 30.286 5.17443 30.1741 5.4684C30.1076 5.63988 30.0237 5.76587 29.9852 5.83936C29.9118 5.94785 29.8383 6.09483 29.7649 6.20682C29.6915 6.31531 29.5796 6.46229 29.5061 6.57428C29.4082 6.71777 29.3208 6.83326 29.2823 6.87175C28.9501 7.31271 28.5829 7.68017 28.1423 8.01263C28.1808 7.97414 27.922 8.16312 27.8835 8.20161C27.7751 8.27511 27.7017 8.3136 27.5898 8.3871C27.4079 8.49908 27.1876 8.60757 27.0023 8.71956C26.8554 8.79305 26.6736 8.90504 26.4882 8.97853C26.4253 9.00653 26.3134 9.05903 26.1665 9.12552C26.0196 9.19201 26.0546 9.17451 25.9987 9.19201C25.693 9.28965 25.3724 9.37399 25.0461 9.46603C24.9282 9.49963 24.8097 9.53358 24.6908 9.56997C24.6779 9.57312 24.6656 9.57662 24.6534 9.58117C24.5257 9.62457 24.432 9.72991 24.3971 9.86394C24.395 9.88144 24.3929 9.89859 24.3908 9.91644C24.3575 10.1968 24.3236 10.5065 24.3236 10.8193C24.3236 11.5193 24.4705 12.2157 24.8027 12.8421C25.0611 13.3562 25.429 13.7818 25.8563 14.1363C25.9784 14.2378 26.1057 14.3337 26.2365 14.424C26.5652 14.606 26.8589 14.7914 27.1911 14.9384C27.5968 15.1239 27.9989 15.3059 28.478 15.3444C28.556 15.3514 28.6333 15.3545 28.7109 15.3545C28.777 15.3549 28.8428 15.3524 28.9081 15.3479C29.0543 15.3384 29.1998 15.3178 29.3439 15.2873C29.474 15.2604 29.6026 15.2254 29.7296 15.1834C30.1328 15.0504 30.5175 14.8488 30.8665 14.6095C33.2514 12.9345 35.016 10.2615 35.124 7.32145C35.1254 7.28786 35.1261 7.25426 35.1268 7.22067V7.21717C35.1405 6.14383 35.0939 6.01364 34.7974 4.72052ZM31.3805 1.00986C31.548 1.0921 31.6854 1.21108 31.8844 1.40601L31.8883 1.40986C32.0002 1.52465 32.1072 1.63944 32.1988 1.75528C32.2722 1.82877 32.3457 1.94076 32.4191 2.01425C32.4925 2.08774 32.566 2.19623 32.6044 2.23473C32.7898 2.45521 32.9367 2.67568 33.0835 2.89616C33.2304 3.15163 33.3773 3.4456 33.5242 3.70458C33.671 3.99855 33.7794 4.25752 33.8913 4.55149C34.1501 5.21292 34.2585 5.83586 34.297 6.53579C34.3704 8.00563 34.0032 9.44049 33.3038 10.6899C32.9716 11.3128 32.5695 11.8657 32.0904 12.3802C31.8316 12.6742 31.5763 12.8946 31.3176 13.1536C31.0238 13.4091 30.8035 13.6296 30.5098 13.815C30.181 14.074 29.8488 14.256 29.4817 14.368C29.2613 14.4415 29.111 14.48 28.9291 14.48C28.7473 14.48 28.527 14.48 28.4151 14.4415C28.0479 14.368 27.6807 14.221 27.3485 14.0355C27.0233 13.8465 26.6596 13.6855 26.135 13.1851C25.8973 12.9436 25.6455 12.5272 25.5056 12.1142C25.272 11.5175 25.2181 10.8897 25.2919 10.2328C25.6651 10.132 26.0672 10.0554 26.4218 9.90594C26.7505 9.75895 27.1177 9.61197 27.4499 9.42649C28.3311 8.95054 29.1774 8.2891 29.8383 7.51568C30.7196 6.48679 31.2336 5.27242 31.3805 3.94955C31.4539 3.17963 31.419 2.37122 31.3071 1.59779C31.2686 1.41581 31.2336 1.19534 31.1952 1.00986V0.97136C31.1952 0.957011 31.1962 0.945812 31.198 0.937413C31.2714 0.960511 31.3322 0.984658 31.3805 1.00986ZM31.1983 0.936363C31.2116 0.879319 31.2574 0.934263 31.1983 0.936363V0.936363Z"
                  fill="black"
                />
                <path
                  d="M6.38418 14.83C6.19884 15.3094 6.27227 15.8974 6.67792 16.2263C6.86326 16.3733 7.08357 16.4118 7.26541 16.2263C7.41229 16.0794 7.45075 15.7854 7.26541 15.6384C7.22695 15.5999 7.19198 15.5999 7.15351 15.5649C7.13649 15.5479 7.13649 15.5479 7.15351 15.5649C7.15351 15.5264 7.11504 15.5264 7.11504 15.4914C7.15351 15.5649 7.11504 15.4529 7.11504 15.4529C7.11504 15.4359 7.11504 15.4359 7.11504 15.4529V15.2674C7.11504 15.2504 7.11504 15.2504 7.11504 15.2674V15.194C7.11504 15.1205 7.15351 15.082 7.18848 15.0085C7.26192 14.788 7.11505 14.5675 6.89474 14.494C6.67443 14.4205 6.45412 14.5675 6.38068 14.788V14.83H6.38418Z"
                  fill="black"
                />
                <path
                  d="M11.4198 10.2349C12.6683 8.94706 14.5426 8.03016 16.3436 8.10365C16.5639 8.10365 16.7492 7.91817 16.7492 7.69769C16.7492 7.47722 16.5639 7.29174 16.3436 7.29174C15.3155 7.25324 14.3223 7.51221 13.4061 7.91817C12.4515 8.32413 11.5702 8.91207 10.8708 9.68199C10.5036 10.0495 11.0911 10.6374 11.4583 10.2699L11.4198 10.2349Z"
                  fill="black"
                />
                <path
                  d="M16.1582 13.3947C16.417 11.1165 16.6373 8.79971 16.8576 6.52144C16.8961 6.30096 16.6373 6.11548 16.452 6.11548C16.2666 6.11548 16.0463 6.30096 16.0463 6.52144C15.7875 8.79971 15.5672 11.1165 15.3469 13.3947C15.3085 13.6152 15.5672 13.8007 15.7526 13.8007C16.0114 13.8007 16.1582 13.6152 16.1582 13.3947Z"
                  fill="black"
                />
                <path
                  d="M16.6722 6.85059C17.0778 6.59162 17.5534 6.48313 18.0325 6.48313C18.5116 6.48313 18.4382 6.29765 18.4382 6.07717C18.4382 5.85669 18.2528 5.67121 18.0325 5.67121C17.4066 5.70971 16.7841 5.81819 16.27 6.15066C16.0847 6.26265 16.0113 6.51812 16.1232 6.7036C16.2316 6.88908 16.4869 6.96258 16.6722 6.85059Z"
                  fill="black"
                />
                <path
                  d="M28.7578 18.3225C29.9328 20.6007 31.0344 23.4319 30.1182 26.0077C29.4572 27.845 27.8032 29.0208 26.1491 29.9063C24.1278 30.9736 21.8128 31.4496 19.5363 31.5966C19.0223 31.6351 18.5432 31.6351 18.0291 31.6351C17.5151 31.6351 17.6969 32.1145 18.0291 32.1145C20.6728 32.1145 23.355 31.7086 25.7434 30.6062C27.4325 29.8328 29.0865 28.7689 30.0412 27.187C31.3631 25.0173 30.9609 22.3715 30.0797 20.1283C29.8209 19.4283 29.4922 18.7319 29.16 18.0705C29.0131 17.7765 28.5725 18.032 28.7194 18.3295H28.7578V18.3225Z"
                  fill="black"
                />
                <path
                  d="M29.3837 17.5491C29.1634 17.6611 28.9781 17.7346 28.7578 17.8431C28.6459 17.8816 28.3521 18.0286 28.2787 18.0636C28.2532 18.0636 28.2287 18.0765 28.2053 18.102C28.0934 18.1405 28.2787 18.0636 28.2053 18.102C27.985 18.1755 27.8381 18.361 27.9115 18.6165C27.95 18.802 28.2053 18.984 28.4256 18.9105C28.9047 18.725 29.3453 18.5045 29.7859 18.284C29.9712 18.172 30.0447 17.9166 29.9328 17.7311C29.8209 17.5106 29.5656 17.4721 29.3802 17.5841V17.5491H29.3837Z"
                  fill="black"
                />
                <path
                  d="M28.4256 18.1019C27.1387 17.5875 25.8169 17.255 24.495 16.9996C22.806 16.6671 21.1169 16.5201 19.3894 16.4466C18.9488 16.4466 18.4697 16.4081 18.0291 16.4081C17.5885 16.4081 17.6235 16.5936 17.6235 16.8141C17.6235 17.0346 17.8088 17.22 18.0291 17.22C21.2253 17.2585 24.4216 17.5525 27.4325 18.5814C27.6912 18.6549 27.9465 18.7669 28.2053 18.8754C28.4256 18.9489 28.6459 18.8019 28.7194 18.5814C28.7928 18.3609 28.6459 18.1754 28.4256 18.0669V18.1019Z"
                  fill="black"
                />
                <path
                  d="M30.0062 17.8816C30.0062 17.3287 30.0447 16.8143 30.0062 16.2648C30.0062 16.0443 29.8209 15.8589 29.6006 15.8589C29.3802 15.8589 29.1949 16.0443 29.1949 16.2648V17.8816C29.1949 18.1021 29.3802 18.2876 29.6006 18.2876C29.8209 18.2876 30.0062 18.1021 30.0062 17.8816Z"
                  fill="black"
                />
                <path
                  d="M29.8244 16.0022C27.915 14.7878 25.7469 13.9794 23.5438 13.5034C21.7429 13.0975 19.8685 12.9505 18.0326 12.9505C16.1967 12.9505 17.627 13.136 17.627 13.3564C17.627 13.5769 17.8123 13.7624 18.0326 13.7624C21.0085 13.7624 23.946 14.2034 26.7401 15.3442C26.8135 15.3827 26.852 15.3827 26.9254 15.4177C27.0373 15.4562 26.852 15.3792 26.9639 15.4177C27.0023 15.4177 27.0373 15.4562 27.0758 15.4562C27.1877 15.5297 27.3345 15.5682 27.443 15.6417C27.7017 15.7537 27.922 15.8622 28.1773 16.0092C28.583 16.2296 28.9851 16.4501 29.3908 16.7091C29.5761 16.8211 29.8314 16.7476 29.9433 16.5621C30.0552 16.3766 29.9818 16.1212 29.7964 16.0092H29.8244V16.0022Z"
                  fill="black"
                />
                <path
                  d="M28.8697 15.0503C28.9081 15.0888 28.9081 15.1623 28.9081 15.1973V15.2708C28.8697 15.1588 28.9081 15.3093 28.9081 15.3093V15.4213C28.9081 15.3093 28.9081 15.4598 28.8697 15.4948C28.7962 15.5682 28.9081 15.3828 28.8697 15.4948C28.8312 15.5332 28.7962 15.5682 28.7578 15.6067C28.5724 15.7537 28.6109 16.0477 28.7578 16.1947C28.9431 16.3802 29.1634 16.3417 29.3452 16.1947C29.7509 15.8622 29.8243 15.2743 29.639 14.7983C29.5656 14.5778 29.3802 14.4659 29.1249 14.5044C28.9396 14.5778 28.7578 14.7983 28.8312 15.0188L28.8697 15.0503Z"
                  fill="black"
                />
                <path
                  d="M25.2328 9.64697C24.4985 8.91205 23.6172 8.32411 22.6975 7.88315C21.7778 7.47719 20.7882 7.22172 19.7601 7.25672C19.5397 7.25672 19.3544 7.4422 19.3544 7.66267C19.3544 7.88315 19.5397 8.06863 19.7601 8.06863C21.561 8.03014 23.4354 8.91555 24.6838 10.1999C25.051 10.5674 25.6385 10.0144 25.2713 9.61197L25.2328 9.64697Z"
                  fill="black"
                />
                <path
                  d="M20.7113 13.3947C20.4525 11.1165 20.2322 8.79971 20.0119 6.52144C19.9734 6.30096 19.8266 6.11548 19.6063 6.11548C19.3859 6.11548 19.1656 6.30096 19.2006 6.52144C19.4209 8.79971 19.6797 11.1165 19.9 13.3947C19.9385 13.6152 20.0853 13.8007 20.3057 13.8007C20.526 13.8007 20.7498 13.6152 20.7113 13.3947Z"
                  fill="black"
                />
                <path
                  d="M19.795 6.15425C19.281 5.82179 18.62 5.7133 18.0325 5.6748C17.8122 5.6748 17.6269 5.86028 17.6269 6.08076C17.6269 6.30124 17.8122 6.48672 18.0325 6.48672C18.5116 6.48672 18.9872 6.59871 19.3929 6.85418C19.5782 6.96617 19.8335 6.89268 19.9454 6.7072C20.0503 6.52171 19.9769 6.26274 19.795 6.15425Z"
                  fill="black"
                />
                <path
                  d="M19.4279 26.1161C19.1341 26.1161 18.8753 26.0426 18.6935 25.9306C18.4732 25.8187 18.2144 25.6717 18.0326 25.4162C17.8472 25.6752 17.592 25.8222 17.3716 25.9306C17.0779 26.0776 16.6722 26.1511 16.2701 26.0776C16.1582 26.0391 16.0498 25.9306 16.0848 25.8187C16.1197 25.7067 16.2316 25.5982 16.3435 25.6332C16.6757 25.7067 16.9695 25.6717 17.1513 25.5597C17.557 25.3392 17.8123 25.1922 17.8123 24.5658C17.8123 23.9393 17.9242 24.3453 18.0326 24.3453C18.141 24.3453 18.2529 24.4573 18.2529 24.5658C18.2529 25.2272 18.5117 25.3392 18.9138 25.5597C19.1341 25.6717 19.4279 25.7067 19.7216 25.6717C19.8335 25.6332 19.9804 25.7452 19.9804 25.8571C20.0189 25.9691 19.9069 26.1161 19.795 26.1161C19.6831 26.1161 19.5363 26.1546 19.4279 26.1546V26.1161Z"
                  fill="black"
                />
                <path
                  d="M19.7566 23.0294C19.7566 23.5439 18.9488 24.2788 17.9207 24.2788C16.8926 24.2788 16.0848 23.5789 16.0848 23.0644C16.0848 22.55 16.8926 22.3645 17.9207 22.3645C18.9488 22.3645 19.7566 22.515 19.7566 23.0294Z"
                  fill="black"
                />
                <path
                  d="M18.7285 22.8088C18.7285 22.9208 18.3963 23.1028 17.9556 23.1028C17.515 23.1028 17.1828 22.9558 17.1828 22.8088C17.1828 22.6619 17.515 22.6969 17.9556 22.6969C18.3963 22.6969 18.7285 22.6619 18.7285 22.8088Z"
                  fill="white"
                />
                <path
                  d="M16.2666 26.0812H16.2281C16.1896 26.0812 16.1547 26.0812 16.0812 26.0427C15.3084 25.8572 14.9062 25.3077 14.9062 24.5343C14.9062 23.7609 15.0181 24.3138 15.1265 24.3138C15.235 24.3138 15.3469 24.4258 15.3469 24.5343C15.3469 25.1223 15.6056 25.4547 16.1931 25.6017C16.2316 25.6017 16.2666 25.6017 16.305 25.6402C16.4169 25.6787 16.5253 25.7872 16.4904 25.8992C16.4519 26.0077 16.3785 26.0812 16.2666 26.0812Z"
                  fill="black"
                />
                <path
                  d="M18.0326 24.7548C17.9207 24.7548 17.8123 24.6428 17.8123 24.5343V23.9079C17.8123 23.7959 17.9242 23.6874 18.0326 23.6874C18.141 23.6874 18.2529 23.7994 18.2529 23.9079V24.4958C18.2529 24.6078 18.141 24.7163 18.0326 24.7163V24.7548Z"
                  fill="black"
                />
                <path
                  d="M19.7566 26.0812C19.6447 26.0812 19.5363 26.0077 19.5363 25.8957C19.4978 25.7837 19.6097 25.6752 19.7216 25.6367C19.7601 25.6367 19.7951 25.6367 19.8335 25.5982C20.3861 25.4512 20.6798 25.1188 20.6798 24.5308C20.6798 23.9429 20.7917 24.3104 20.9001 24.3104C21.0085 24.3104 21.1204 24.4223 21.1204 24.5308C21.1204 25.3392 20.7148 25.8537 19.9454 26.0392C19.907 26.0392 19.872 26.0777 19.7986 26.0777H19.7566V26.0812Z"
                  fill="black"
                />
                <path
                  d="M14.651 20.1249C14.651 21.0803 14.0635 21.8887 13.3641 21.8887C12.6647 21.8887 12.0772 21.1153 12.0772 20.1249C12.0772 19.1345 12.5178 18.5815 13.1053 18.396C13.511 18.69 13.9866 19.0225 14.5741 19.4634C14.6475 19.6839 14.686 19.9044 14.686 20.1249H14.651Z"
                  fill="black"
                />
                <path
                  d="M14.1719 19.866C14.1719 20.1985 13.9516 20.4925 13.6928 20.4925C13.434 20.4925 13.2137 20.1985 13.2137 19.866C13.2137 19.5336 13.434 19.2396 13.6928 19.2396C13.9516 19.2396 14.1719 19.5371 14.1719 19.866Z"
                  fill="white"
                />
                <path
                  d="M13.0704 21.4479C12.5913 21.8539 12.1157 22.2948 11.71 22.8093C11.5247 23.0683 11.3429 23.3237 11.231 23.5827C11.0841 23.8767 11.0106 24.1356 10.9372 24.4646C10.8987 24.6116 10.8987 24.7971 10.8638 24.9441L10.8253 25.203V26.4174C10.8638 26.7499 10.8987 27.0788 10.9722 27.3728C11.0106 27.5198 11.0456 27.7053 11.0841 27.8523C11.1225 27.9992 11.1575 28.1847 11.231 28.3317L11.0106 27.8908C10.9372 27.7438 10.8987 27.5968 10.8253 27.4113C10.7134 27.0788 10.64 26.7849 10.5665 26.4559C10.4931 26.1269 10.4546 25.7945 10.4197 25.462V24.9441C10.4197 24.7586 10.4197 24.6116 10.4581 24.4296C10.4966 24.0972 10.57 23.7297 10.6784 23.4007C10.7868 23.0718 10.9722 22.7393 11.1575 22.4453C11.5247 21.8574 12.0038 21.3429 12.4794 20.8635C12.6262 20.7165 12.885 20.7165 13.0669 20.8635C13.2172 21.007 13.2557 21.2624 13.0669 21.4479H13.0704Z"
                  fill="black"
                />
                <path
                  d="M12.7766 21.3009H12.5913L12.4794 21.2624C12.4059 21.2624 12.3325 21.2239 12.2591 21.2239C12.1122 21.1854 11.9653 21.1854 11.8534 21.1854C11.5597 21.1854 11.3009 21.1854 11.0071 21.2589C10.8603 21.2974 10.7134 21.3324 10.6015 21.4059C10.4546 21.4794 10.3427 21.5529 10.2343 21.6264C9.97553 21.8119 9.79369 22.0324 9.60835 22.2878C9.72025 21.9939 9.86713 21.7349 10.0874 21.4794C10.1993 21.3674 10.3077 21.2589 10.4546 21.1469C10.6015 21.035 10.7134 20.9615 10.8603 20.888C11.154 20.741 11.4862 20.629 11.8149 20.594C11.9618 20.5555 12.1472 20.5555 12.329 20.5555H12.7731C12.9934 20.5555 13.1788 20.741 13.1788 20.9615C13.1788 21.1819 12.9934 21.3674 12.7381 21.3674L12.7766 21.3009Z"
                  fill="black"
                />
                <path
                  d="M21.3372 20.1249C21.3372 21.0803 21.9247 21.8887 22.6241 21.8887C23.3235 21.8887 23.911 21.1153 23.911 20.1249C23.911 19.1345 23.4704 18.5815 22.8829 18.396C22.5157 18.655 22.1485 18.949 21.4141 19.4634C21.3407 19.6839 21.3022 19.9044 21.3022 20.1249H21.3372Z"
                  fill="black"
                />
                <path
                  d="M21.8163 19.866C21.8163 20.1985 22.0366 20.4925 22.2954 20.4925C22.5541 20.4925 22.7745 20.1985 22.7745 19.866C22.7745 19.5336 22.5541 19.2396 22.2954 19.2396C22.0366 19.2431 21.8163 19.5371 21.8163 19.866Z"
                  fill="white"
                />
                <path
                  d="M22.9179 21.4479C23.397 21.8539 23.8726 22.2948 24.2782 22.8093C24.4635 23.0683 24.6454 23.3237 24.7573 23.5827C24.9042 23.8767 24.9776 24.1356 25.051 24.4646C25.0895 24.6116 25.0895 24.7971 25.1245 24.9441L25.1629 25.203V26.4174C25.1245 26.7499 25.0895 27.0788 25.0161 27.3728C24.9776 27.5198 24.9426 27.7053 24.9042 27.8523C24.8657 27.9992 24.8307 28.1847 24.7573 28.3317C24.8307 28.1847 24.9042 28.0377 24.9776 27.8908C25.051 27.7438 25.0895 27.5968 25.1629 27.4113C25.2748 27.0788 25.3483 26.7849 25.4217 26.4559C25.4951 26.1234 25.5336 25.7945 25.5686 25.462V24.9441C25.5686 24.7586 25.5686 24.6116 25.5301 24.4296C25.4916 24.0972 25.4182 23.7297 25.3098 23.4007C25.2014 23.0718 25.0161 22.7393 24.8307 22.4453C24.4635 21.8574 23.9845 21.3429 23.5089 20.8635C23.362 20.7165 23.1032 20.7165 22.9214 20.8635C22.771 21.007 22.7325 21.2624 22.9179 21.4479Z"
                  fill="black"
                />
                <path
                  d="M23.2116 21.3009H23.3969L23.5088 21.2624C23.5823 21.2624 23.6557 21.2239 23.7291 21.2239C23.876 21.1854 24.0229 21.1854 24.1348 21.1854C24.4285 21.1854 24.6873 21.1854 24.981 21.2589C25.1279 21.2974 25.2748 21.3324 25.3867 21.4059C25.5336 21.4794 25.6455 21.5529 25.7539 21.6264C26.0127 21.8119 26.1945 22.0324 26.3798 22.2878C26.2679 21.9939 26.1211 21.7349 25.9007 21.4794C25.7888 21.3674 25.6804 21.2589 25.5336 21.1469C25.3867 21.035 25.2748 20.9615 25.1279 20.888C24.8342 20.741 24.502 20.629 24.1732 20.594C24.0264 20.5555 23.841 20.5555 23.6592 20.5555H23.2151C22.9948 20.5555 22.8094 20.741 22.8094 20.9615C22.8094 21.1819 22.9948 21.3674 23.25 21.3289L23.2116 21.3009Z"
                  fill="black"
                />
                <path
                  d="M36.8393 24.2789V11.9252H46.2426V14.6094H40.5146V16.7407H45.5083V19.4634H40.5146V24.2789H36.8393Z"
                  fill="#5C5C5C"
                />
                <path
                  d="M40.7349 24.4995H36.6189V11.7434H46.4629V14.8685H40.6964V16.5589H45.7286V19.719H40.6964V24.5345L40.7349 24.4995ZM37.0596 24.0586H40.2558V19.2431H45.2879V16.9648H40.2558V14.3926H46.0223V12.1493H37.0596V24.0586Z"
                  fill="black"
                />
                <path
                  d="M47.2357 24.2789V11.9252H50.8726V21.5212H56.5307V24.2789H47.2357Z"
                  fill="#5C5C5C"
                />
                <path
                  d="M56.7511 24.4995H47.0155V11.7434H51.1314V21.3009H56.7511V24.4995ZM47.4561 24.0586H56.3104V21.7418H50.6908V12.1843H47.4946V24.0586H47.4561Z"
                  fill="black"
                />
                <path
                  d="M63.2904 24.4609C61.2342 24.4609 59.6151 23.9464 58.552 22.9525C57.4505 21.9587 56.8979 20.3418 56.8979 18.137C56.8979 15.9323 57.1567 15.3793 57.6323 14.4239C58.1114 13.4685 58.8458 12.8071 59.8004 12.3661C60.7551 11.9252 61.9301 11.7397 63.2904 11.7397C64.6507 11.7397 65.8257 11.9602 66.7804 12.3661C67.7351 12.8071 68.4694 13.4685 68.9485 14.4239C69.4276 15.3793 69.6829 16.5937 69.6829 18.137C69.6829 20.3418 69.1304 21.9622 68.0288 22.9525C66.9273 23.9429 65.3466 24.4609 63.2904 24.4609ZM63.2904 21.4092C64.2101 21.4092 64.906 21.1502 65.3117 20.6358C65.7173 20.1213 65.9376 19.2744 65.9376 18.172C65.9376 17.0697 65.7173 16.1143 65.3117 15.5998C64.906 15.0854 64.2101 14.8264 63.2904 14.8264C62.3707 14.8264 61.6748 15.0854 61.2692 15.5998C60.8635 16.1143 60.6432 16.9612 60.6432 18.172C60.6432 19.3829 60.8635 20.1213 61.2692 20.6358C61.6748 21.1502 62.3707 21.4092 63.2904 21.4092Z"
                  fill="#5C5C5C"
                />
                <path
                  d="M63.2903 24.6814C61.1607 24.6814 59.5066 24.1669 58.4051 23.138C57.265 22.1091 56.6776 20.4188 56.6776 18.137C56.6776 15.8553 56.9363 15.3058 57.4504 14.3119C57.9644 13.318 58.7373 12.6216 59.7269 12.1806C60.7201 11.7397 61.895 11.5192 63.3288 11.5192C64.7626 11.5192 65.9375 11.7397 66.9307 12.1806C67.9238 12.6216 68.6932 13.3565 69.2072 14.3119C69.7213 15.2673 69.98 16.5552 69.98 18.137C69.98 20.4153 69.3925 22.1091 68.2525 23.138C67.1125 24.1669 65.462 24.6814 63.3673 24.6814H63.2903ZM63.2903 11.9637C61.9685 11.9637 60.8285 12.1841 59.8738 12.5901C58.9541 12.9961 58.2932 13.6575 57.8176 14.5394C57.3385 15.4213 57.1182 16.6357 57.1182 18.144C57.1182 19.6524 57.6322 21.8572 58.6988 22.8126C59.7269 23.768 61.3076 24.2474 63.2903 24.2474C65.2731 24.2474 66.8153 23.768 67.8819 22.8126C68.91 21.8572 69.4625 20.3138 69.4625 18.144C69.4625 15.9743 69.2037 15.4598 68.7631 14.5394C68.284 13.6575 67.5881 12.9961 66.7069 12.5901C65.7872 12.1841 64.6507 11.9637 63.3288 11.9637H63.2903ZM63.2903 21.5947C62.2972 21.5947 61.5628 21.3007 61.0872 20.7478C60.6082 20.1948 60.3878 19.3129 60.3878 18.137C60.3878 16.9612 60.6082 15.9673 61.0872 15.4178C61.5663 14.8649 62.3007 14.5709 63.2903 14.5709C64.28 14.5709 65.0178 14.8649 65.4934 15.4178C65.9725 15.9708 66.1928 16.8527 66.1928 18.137C66.1928 19.4214 65.9725 20.1948 65.4934 20.7478C65.0178 21.3007 64.2835 21.5947 63.2903 21.5947ZM63.2903 15.0154C62.4441 15.0154 61.8216 15.2358 61.416 15.6768C61.0103 16.1562 60.8285 16.9647 60.8285 18.102C60.8285 19.2394 61.0138 19.9778 61.416 20.4538C61.7831 20.9332 62.4091 21.1537 63.2903 21.1537C64.1716 21.1537 64.7591 20.9332 65.1647 20.4538C65.5704 19.9743 65.7522 19.2044 65.7522 18.102C65.7522 16.9997 65.5669 16.1177 65.1647 15.6768C64.7975 15.2358 64.1716 15.0154 63.3288 15.0154H63.2903Z"
                  fill="black"
                />
                <path
                  d="M71.0782 24.2791V11.9254H74.715V16.2649L78.4988 11.9254H82.6881L78.24 16.9998L82.9819 24.2791H79.0863L76.0019 19.2781L74.715 20.713V24.2791H71.0782Z"
                  fill="#5C5C5C"
                />
                <path
                  d="M83.384 24.4996H78.9743L75.9634 19.6841L74.9353 20.825V24.5381H70.8194V11.7784H74.9353V15.7505L78.3868 11.7784H83.1252L78.4953 17.0734L83.3456 24.5381L83.384 24.4996ZM79.1981 24.0587H82.5413L77.9497 16.9999L82.1391 12.1844H78.5757L74.4563 16.8879V12.1844H71.26V24.0587H74.4563V20.6395L75.9984 18.9492L79.1981 24.0587Z"
                  fill="black"
                />
                <path
                  d="M84.3387 24.2789V11.9252H88.014V24.2789H84.3387Z"
                  fill="#5C5C5C"
                />
                <path
                  d="M88.2343 24.4995H84.1183V11.7434H88.2343V24.4995ZM84.559 24.0586H87.7552V12.1843H84.559V24.0586Z"
                  fill="black"
                />
              </g>
            </svg>