 <svg
              xmlns="http://www.w3.org/2000/svg"
              width="45"
              height="33"
              viewBox="0 0 45 33"
              fill="none"
            >
              <g clip-path="url(#clip0_61778_237)">
                <path
                  d="M44.2078 31.1022C44.2078 31.5685 43.8612 31.8815 43.4508 31.8815V31.8786C43.0288 31.8815 42.6885 31.5685 42.6885 31.1023C42.6885 30.6363 43.0288 30.3242 43.4508 30.3242C43.8613 30.324 44.2078 30.6361 44.2078 31.1022ZM44.5149 31.1022C44.5149 30.4623 44.0117 30.0908 43.4508 30.0908C42.8861 30.0908 42.3828 30.4623 42.3828 31.1022C42.3828 31.7417 42.8862 32.1147 43.4508 32.1147C44.0118 32.1147 44.5149 31.7417 44.5149 31.1022ZM43.2743 31.1878H43.3882L43.6522 31.6457H43.9422L43.6497 31.1685C43.8008 31.1578 43.9251 31.0867 43.9251 30.8858C43.9251 30.6361 43.7509 30.5559 43.4557 30.5559H43.0286V31.6457H43.2741V31.1878M43.2743 31.0033V30.7409H43.445C43.5379 30.7409 43.6645 30.7483 43.6645 30.8602C43.6645 30.982 43.599 31.0033 43.4895 31.0033H43.2743Z"
                  fill="#5C5C5C"
                />
                <path
                  d="M37.3487 25.5276L38.6755 29.1127H35.9808L37.3487 25.5276ZM35.9278 24.1316L32.8702 31.7834H35.0292L35.5129 30.4314H39.1313L39.589 31.7834H41.9328L38.8525 24.1307L35.9278 24.1316ZM29.7892 31.7862H31.9797V24.1293L29.7888 24.1288L29.7892 31.7862ZM14.5825 24.1288L12.7549 30.1975L11.0043 24.1293L8.64076 24.1288L11.1411 31.7862H14.2968L16.8173 24.1288H14.5825ZM23.4367 25.7962H24.3782C25.744 25.7962 26.6274 26.4018 26.6274 27.9736C26.6274 29.5457 25.744 30.1515 24.3782 30.1515H23.4367V25.7962ZM21.2646 24.1288V31.7862H24.8158C26.7079 31.7862 27.3257 31.4756 27.9937 30.7787C28.4656 30.2894 28.7708 29.2156 28.7708 28.0417C28.7708 26.9651 28.5125 26.0054 28.0622 25.4074C27.2508 24.3379 26.082 24.1288 24.3377 24.1288H21.2646ZM0.514923 24.1182V31.7862H2.72394V25.9638L4.43556 25.9643C5.00231 25.9643 5.4063 26.1038 5.67922 26.3918C6.02538 26.756 6.16672 27.3438 6.16672 28.4191V31.7862H8.30725V27.5496C8.30725 24.5259 6.35601 24.1182 4.44683 24.1182H0.514923ZM17.7392 24.1288L17.7401 31.7862H19.9296V24.1288H17.7392Z"
                  fill="#5C5C5C"
                />
                <path
                  d="M6.40183 8.88212C6.40183 8.88212 9.21915 4.77641 14.8444 4.35165V2.86211C8.61372 3.35636 3.21819 8.56865 3.21819 8.56865C3.21819 8.56865 6.27413 17.2944 14.8444 18.0933V16.51C8.55513 15.7285 6.40183 8.88212 6.40183 8.88212ZM14.8444 13.3613V14.8112C10.0911 13.9742 8.77171 9.09381 8.77171 9.09381C8.77171 9.09381 11.054 6.59661 14.8444 6.19164V7.7827C14.8415 7.7827 14.8395 7.78184 14.8371 7.78184C12.8477 7.54603 11.2936 9.38168 11.2936 9.38168C11.2936 9.38168 12.1647 12.4719 14.8444 13.3613ZM14.8444 0.114746V2.86211C15.0273 2.84826 15.2102 2.83651 15.3941 2.83033C22.4777 2.59452 27.0932 8.56865 27.0932 8.56865C27.0932 8.56865 21.7922 14.9354 16.2695 14.9354C15.7633 14.9354 15.2895 14.889 14.8444 14.8111V16.51C15.225 16.5577 15.6196 16.5858 16.0314 16.5858C21.1706 16.5858 24.8872 13.9934 28.486 10.9251C29.0826 11.3971 31.5254 12.5454 32.0275 13.048C28.6058 15.8776 20.6312 18.1586 16.1101 18.1586C15.6743 18.1586 15.2558 18.1325 14.8444 18.0933V20.4806H34.3784V0.114746H14.8444ZM14.8444 6.19164V4.35165C15.0254 4.33916 15.2078 4.32964 15.3941 4.32383C20.4879 4.1658 23.8298 8.64742 23.8298 8.64742C23.8298 8.64742 20.2203 13.5989 16.3501 13.5989C15.7931 13.5989 15.2938 13.5105 14.8444 13.3613V7.7827C16.8274 8.01938 17.2264 8.88459 18.4186 10.8476L21.0702 8.63926C21.0702 8.63926 19.1346 6.13191 15.8717 6.13191C15.5171 6.13179 15.1777 6.15639 14.8444 6.19164Z"
                  fill="#5C5C5C"
                />
              </g>
              <defs>
                <clipPath id="clip0_61778_237">
                  <rect
                    width="44"
                    height="32"
                    fill="white"
                    transform="translate(0.514923 0.114746)"
                  />
                </clipPath>
              </defs>
            </svg>