<svg xmlns="http://www.w3.org/2000/svg" width="24" height="32" viewBox="0 0 24 32" fill="none">
  <path d="M9.14251 10.971C9.14251 10.2139 8.52855 9.59937 7.77084 9.59937C7.01313 9.59937 6.39917 10.2133 6.39917 10.971C6.39917 10.971 6.39917 10.9722 6.39917 10.9728V11.4267C6.39917 11.4267 6.39917 11.4279 6.39917 11.4285C6.39917 12.1856 7.01313 12.8001 7.77084 12.8001C8.52855 12.8001 9.14251 12.1862 9.14251 11.4285V10.9716V10.971Z" fill="white"/>
  <path d="M17.3708 10.971C17.3708 10.2139 16.7568 9.59937 15.9991 9.59937C15.2414 9.59937 14.6274 10.2133 14.6274 10.971C14.6274 10.971 14.6274 10.9722 14.6274 10.9728V11.4267C14.6274 11.4267 14.6274 11.4279 14.6274 11.4285C14.6274 12.1856 15.2414 12.8001 15.9991 12.8001C16.7568 12.8001 17.3708 12.1862 17.3708 11.4285V10.9716V10.971Z" fill="white"/>
  <path d="M16.9139 16.4309H6.85655C4.60205 16.4309 2.76831 14.5972 2.76831 12.3427V10.0567C2.76831 7.80225 4.60205 5.96851 6.85655 5.96851H16.9139C19.1684 5.96851 21.0021 7.80225 21.0021 10.0567V12.3427C21.0021 14.5972 19.1684 16.4309 16.9139 16.4309ZM6.85713 7.74522C5.58265 7.74522 4.5456 8.78226 4.5456 10.0567V12.3427C4.5456 13.6172 5.58265 14.6542 6.85713 14.6542H16.9145C18.189 14.6542 19.226 13.6172 19.226 12.3427V10.0567C19.226 8.78226 18.189 7.74522 16.9145 7.74522H6.85713Z" fill="white"/>
  <path d="M23.7711 8.68569C23.7711 3.88863 19.8825 0 15.0855 0H8.68569C3.88863 0 0 3.88863 0 8.68569V23.3143C0 28.1114 3.88863 32 8.68569 32H15.0855C19.8825 32 23.7711 28.1114 23.7711 23.3143V8.68569ZM21.9426 9.04708V23.3143C21.9426 27.0953 18.8664 30.1715 15.0855 30.1715H8.68569C4.90472 30.1715 1.8285 27.0953 1.8285 23.3143V8.68569C1.8285 4.90472 4.90472 1.8285 8.68569 1.8285H15.0855C18.8664 1.8285 21.9426 4.90472 21.9426 8.68569V9.04708Z" fill="white"/>
</svg>