<svg xmlns="http://www.w3.org/2000/svg" width="1648" height="310" viewBox="0 0 1648 310" fill="none">
  <g opacity="0.3">
    <path d="M0 305.728V14.0974H109.03C131.366 14.0974 150.106 17.9896 165.249 25.774C180.486 33.5584 191.986 44.4756 199.746 58.5255C207.602 72.4805 211.53 88.7613 211.53 107.368C211.53 126.07 207.555 142.303 199.604 156.068C191.749 169.738 180.155 180.323 164.823 187.823C149.49 195.227 130.656 198.93 108.32 198.93H30.6647V155.071H101.222C114.283 155.071 124.978 153.267 133.306 149.66C141.635 145.958 147.787 140.594 151.762 133.569C155.832 126.449 157.866 117.716 157.866 107.368C157.866 97.0204 155.832 88.1917 151.762 80.882C147.692 73.4773 141.493 67.8763 133.164 64.079C124.836 60.1868 114.093 58.2407 100.938 58.2407H52.6695V305.728H0ZM150.2 173.583L222.177 305.728H163.403L92.7039 173.583H150.2Z" fill="#5C5C5C"/>
    <path d="M348.484 310C327.189 310 308.734 305.301 293.118 295.903C277.501 286.504 265.387 273.356 256.774 256.458C248.256 239.561 243.997 219.815 243.997 197.221C243.997 174.627 248.256 154.834 256.774 137.841C265.387 120.848 277.501 107.653 293.118 98.2545C308.734 88.8562 327.189 84.1571 348.484 84.1571C369.779 84.1571 388.235 88.8562 403.851 98.2545C419.467 107.653 431.535 120.848 440.053 137.841C448.665 154.834 452.971 174.627 452.971 197.221C452.971 219.815 448.665 239.561 440.053 256.458C431.535 273.356 419.467 286.504 403.851 295.903C388.235 305.301 369.779 310 348.484 310ZM348.768 268.705C360.315 268.705 369.969 265.524 377.729 259.164C385.49 252.709 391.264 244.07 395.049 233.248C398.93 222.425 400.87 210.369 400.87 197.079C400.87 183.693 398.93 171.589 395.049 160.767C391.264 149.85 385.49 141.164 377.729 134.708C369.969 128.253 360.315 125.025 348.768 125.025C336.938 125.025 327.095 128.253 319.239 134.708C311.479 141.164 305.658 149.85 301.777 160.767C297.992 171.589 296.099 183.693 296.099 197.079C296.099 210.369 297.992 222.425 301.777 233.248C305.658 244.07 311.479 252.709 319.239 259.164C327.095 265.524 336.938 268.705 348.768 268.705Z" fill="#5C5C5C"/>
    <path d="M497.613 305.728V14.0974H549.004V123.174H551.134C553.784 117.858 557.522 112.209 562.349 106.229C567.176 100.153 573.707 94.9793 581.941 90.7074C590.175 86.3405 600.68 84.1571 613.457 84.1571C630.304 84.1571 645.494 88.4765 659.028 97.1153C672.657 105.659 683.446 118.333 691.397 135.135C699.441 151.844 703.464 172.349 703.464 196.651C703.464 220.669 699.536 241.079 691.68 257.882C683.825 274.685 673.13 287.501 659.596 296.33C646.062 305.158 630.73 309.573 613.599 309.573C601.106 309.573 590.743 307.484 582.508 303.307C574.274 299.13 567.649 294.099 562.633 288.213C557.712 282.232 553.879 276.584 551.134 271.268H548.153V305.728H497.613ZM548.011 196.367C548.011 210.511 549.998 222.9 553.973 233.532C558.043 244.165 563.864 252.471 571.435 258.452C579.101 264.338 588.376 267.281 599.26 267.281C610.618 267.281 620.13 264.243 627.796 258.167C635.462 251.997 641.235 243.595 645.116 232.963C649.091 222.235 651.078 210.037 651.078 196.367C651.078 182.791 649.138 170.735 645.258 160.198C641.377 149.66 635.604 141.401 627.938 135.42C620.271 129.44 610.712 126.449 599.26 126.449C588.282 126.449 578.959 129.345 571.293 135.135C563.627 140.926 557.806 149.043 553.831 159.486C549.951 169.928 548.011 182.222 548.011 196.367Z" fill="#5C5C5C"/>
    <path d="M841.022 310C819.727 310 801.271 305.301 785.655 295.903C770.039 286.504 757.924 273.356 749.312 256.458C740.794 239.561 736.535 219.815 736.535 197.221C736.535 174.627 740.794 154.834 749.312 137.841C757.924 120.848 770.039 107.653 785.655 98.2545C801.271 88.8562 819.727 84.1571 841.022 84.1571C862.317 84.1571 880.772 88.8562 896.389 98.2545C912.005 107.653 924.072 120.848 932.59 137.841C941.203 154.834 945.509 174.627 945.509 197.221C945.509 219.815 941.203 239.561 932.59 256.458C924.072 273.356 912.005 286.504 896.389 295.903C880.772 305.301 862.317 310 841.022 310ZM841.306 268.705C852.852 268.705 862.506 265.524 870.267 259.164C878.028 252.709 883.801 244.07 887.587 233.248C891.467 222.425 893.407 210.369 893.407 197.079C893.407 183.693 891.467 171.589 887.587 160.767C883.801 149.85 878.028 141.164 870.267 134.708C862.506 128.253 852.852 125.025 841.306 125.025C829.475 125.025 819.632 128.253 811.777 134.708C804.016 141.164 798.195 149.85 794.315 160.767C790.529 171.589 788.636 183.693 788.636 197.079C788.636 210.369 790.529 222.425 794.315 233.248C798.195 244.07 804.016 252.709 811.777 259.164C819.632 265.524 829.475 268.705 841.306 268.705Z" fill="#5C5C5C"/>
    <path d="M1096.77 87.0051V126.876H971.411V87.0051H1096.77ZM1002.36 34.6027H1053.75V239.94C1053.75 246.87 1054.79 252.186 1056.87 255.889C1059.05 259.496 1061.89 261.964 1065.39 263.294C1068.89 264.623 1072.77 265.287 1077.03 265.287C1080.25 265.287 1083.19 265.05 1085.84 264.575C1088.58 264.1 1090.66 263.673 1092.08 263.294L1100.74 303.592C1098 304.541 1094.07 305.586 1088.96 306.725C1083.94 307.864 1077.79 308.529 1070.5 308.718C1057.63 309.098 1046.04 307.152 1035.72 302.88C1025.41 298.513 1017.22 291.773 1011.16 282.66C1005.2 273.546 1002.26 262.154 1002.36 248.484V34.6027Z" fill="#5C5C5C"/>
    <path d="M1138.5 305.728V87.0051H1189.89V305.728H1138.5ZM1164.34 55.9623C1156.2 55.9623 1149.19 53.2568 1143.32 47.8457C1137.46 42.3396 1134.52 35.7418 1134.52 28.0524C1134.52 20.268 1137.46 13.6702 1143.32 8.25906C1149.19 2.75302 1156.2 0 1164.34 0C1172.57 0 1179.57 2.75302 1185.35 8.25906C1191.21 13.6702 1194.15 20.268 1194.15 28.0524C1194.15 35.7418 1191.21 42.3396 1185.35 47.8457C1179.57 53.2568 1172.57 55.9623 1164.34 55.9623Z" fill="#5C5C5C"/>
    <path d="M1336.6 310C1314.84 310 1296.14 305.206 1280.53 295.618C1265.01 286.03 1253.03 272.787 1244.61 255.889C1236.28 238.896 1232.12 219.34 1232.12 197.221C1232.12 175.007 1236.38 155.403 1244.89 138.411C1253.41 121.323 1265.43 108.032 1280.95 98.5393C1296.57 88.9512 1315.03 84.1571 1336.32 84.1571C1354.02 84.1571 1369.68 87.4323 1383.31 93.9825C1397.03 100.438 1407.97 109.599 1416.11 121.465C1424.24 133.237 1428.88 147.002 1430.02 162.761H1380.9C1378.91 152.223 1374.18 143.442 1366.7 136.417C1359.32 129.297 1349.43 125.737 1337.03 125.737C1326.52 125.737 1317.3 128.585 1309.35 134.281C1301.4 139.882 1295.2 147.951 1290.75 158.489C1286.4 169.026 1284.22 181.652 1284.22 196.367C1284.22 211.271 1286.4 224.087 1290.75 234.814C1295.1 245.446 1301.21 253.658 1309.06 259.449C1317.01 265.145 1326.34 267.993 1337.03 267.993C1344.6 267.993 1351.37 266.569 1357.33 263.721C1363.39 260.778 1368.45 256.553 1372.52 251.047C1376.59 245.541 1379.38 238.849 1380.9 230.969H1430.02C1428.79 246.443 1424.24 260.161 1416.39 272.122C1408.53 283.989 1397.84 293.292 1384.31 300.032C1370.77 306.677 1354.87 310 1336.6 310Z" fill="#5C5C5C"/>
    <path d="M1643.32 144.819L1596.47 149.945C1595.14 145.198 1592.82 140.736 1589.51 136.559C1586.29 132.382 1581.94 129.012 1576.45 126.449C1570.96 123.886 1564.24 122.604 1556.29 122.604C1545.6 122.604 1536.6 124.93 1529.32 129.582C1522.12 134.234 1518.57 140.262 1518.67 147.667C1518.57 154.027 1520.89 159.201 1525.63 163.188C1530.45 167.175 1538.4 170.45 1549.48 173.013L1586.67 180.988C1607.3 185.449 1622.64 192.522 1632.67 202.205C1642.79 211.888 1647.91 224.561 1648 240.225C1647.91 253.99 1643.88 266.141 1635.93 276.679C1628.08 287.121 1617.15 295.286 1603.14 301.171C1589.13 307.057 1573.04 310 1554.87 310C1528.18 310 1506.7 304.399 1490.42 293.197C1474.14 281.9 1464.44 266.189 1461.31 246.063L1511.43 241.222C1513.7 251.095 1518.53 258.547 1525.91 263.578C1533.29 268.61 1542.9 271.125 1554.73 271.125C1566.94 271.125 1576.73 268.61 1584.12 263.578C1591.59 258.547 1595.33 252.329 1595.33 244.924C1595.33 238.659 1592.92 233.485 1588.09 229.403C1583.36 225.321 1575.98 222.188 1565.94 220.005L1528.75 212.173C1507.83 207.806 1492.36 200.449 1482.33 190.101C1472.29 179.659 1467.32 166.463 1467.42 150.514C1467.32 137.034 1470.97 125.358 1478.35 115.485C1485.83 105.517 1496.19 97.8273 1509.44 92.4162C1522.79 86.9101 1538.17 84.1571 1555.58 84.1571C1581.13 84.1571 1601.25 89.6157 1615.92 100.533C1630.68 111.45 1639.81 126.212 1643.32 144.819Z" fill="#5C5C5C"/>
  </g>
</svg>