<svg
              xmlns="http://www.w3.org/2000/svg"
              width="110"
              height="26"
              viewBox="0 0 110 26"
              fill="none"
            >
              <path
                d="M11.7287 0.229494H28.6568L25.8726 5.38352H8.94458L11.7287 0.229494Z"
                fill="#A4A4A4"
              />
              <path
                d="M8.83309 20.846H23.0882L20.3041 26H6.04883L8.83309 20.846Z"
                fill="#A4A4A4"
              />
              <path
                d="M6.23538 10.5375H28.6569L25.9091 15.6916H3.48755L6.23538 10.5375Z"
                fill="#A4A4A4"
              />
              <path
                d="M2.81918 5.38364L8.94443 5.38352L6.16016 10.5377H0.0349121L2.81918 5.38364Z"
                fill="#A4A4A4"
              />
              <path
                d="M25.8724 15.6917H31.3294L28.5453 20.8458L23.0881 20.846L25.8724 15.6917Z"
                fill="#A4A4A4"
              />
              <path
                d="M48.9989 15.5837V18.9442L46.6074 20.3254H41.2471V18.5318H46.9991V15.996H43.6386L41.2471 14.6147V11.3985L43.6386 10.0172H48.7927V11.8109H43.2468V14.2024H46.6074L48.9989 15.5837ZM61.0623 19.0472L58.6707 20.4285H54.6917L52.3002 19.0472V11.2954L54.6917 9.91418H58.6707L61.0623 11.2954V19.0472ZM54.3 11.7078V18.635H59.0624V11.7078H54.3ZM66.7515 20.3254L64.36 18.9442V5.27549H66.3599V18.5318H68.8338V20.3254H66.7515ZM72.4909 16.0991V18.635H76.6347V16.0991H72.4909ZM72.8825 20.4285L70.491 19.0472V15.6867L72.8825 14.3055H76.6347V11.8109H71.5219V10.0172H76.243L78.6345 11.3985V20.4285H78.0985L76.6347 19.5833L75.1709 20.4285H72.8825ZM82.8847 24.4488L84.6783 19.8512L80.6994 10.0172H82.6992L85.6267 17.3567H85.668L88.5749 10.0172H90.5747L84.8433 24.4488H82.8847ZM100.771 18.5318V20.3254H95.0186L92.6272 18.9442V11.2954L95.0186 9.91418H98.3791L100.771 11.2954V15.8723H94.627V18.5318H100.771ZM94.627 11.7078V14.0787H98.7708V11.7078H94.627ZM109.815 11.8109H106.062V20.3254H104.063V10.0172H105.568L106.062 10.8625L107.527 10.0172H109.815V11.8109Z"
                fill="#A4A4A4"
              />
            </svg>